<svg width="1920" height="1080" viewBox="0 0 1920 1080" fill="none" xmlns="http://www.w3.org/2000/svg">
  <defs>
    <linearGradient id="bgGradient" x1="0%" y1="0%" x2="100%" y2="100%">
      <stop offset="0%" style="stop-color:#5B3A29;stop-opacity:1" />
      <stop offset="50%" style="stop-color:#8B4513;stop-opacity:1" />
      <stop offset="100%" style="stop-color:#2d3748;stop-opacity:1" />
    </linearGradient>
    <pattern id="texture" patternUnits="userSpaceOnUse" width="100" height="100">
      <circle cx="20" cy="20" r="2" fill="rgba(244,163,0,0.1)"/>
      <circle cx="80" cy="80" r="1.5" fill="rgba(244,163,0,0.08)"/>
      <circle cx="50" cy="70" r="1" fill="rgba(244,163,0,0.05)"/>
    </pattern>
  </defs>
  
  <!-- Background -->
  <rect width="1920" height="1080" fill="url(#bgGradient)"/>
  
  <!-- Texture overlay -->
  <rect width="1920" height="1080" fill="url(#texture)"/>
  
  <!-- Abstract shapes representing agriculture/export -->
  <path d="M0 800 Q400 700 800 750 T1600 700 L1920 720 L1920 1080 L0 1080 Z" fill="rgba(91,58,41,0.3)"/>
  <path d="M0 900 Q300 850 600 880 T1200 860 L1920 870 L1920 1080 L0 1080 Z" fill="rgba(139,69,19,0.2)"/>
  
  <!-- Decorative elements -->
  <circle cx="300" cy="200" r="40" fill="rgba(244,163,0,0.1)"/>
  <circle cx="1600" cy="300" r="60" fill="rgba(244,163,0,0.08)"/>
  <circle cx="800" cy="150" r="25" fill="rgba(244,163,0,0.12)"/>
  
  <!-- Grain/agriculture pattern -->
  <g transform="translate(100, 100)" opacity="0.1">
    <path d="M0 0 Q10 -20 20 0 Q30 20 40 0" stroke="#F4A300" stroke-width="2" fill="none"/>
    <path d="M60 0 Q70 -20 80 0 Q90 20 100 0" stroke="#F4A300" stroke-width="2" fill="none"/>
    <path d="M120 0 Q130 -20 140 0 Q150 20 160 0" stroke="#F4A300" stroke-width="2" fill="none"/>
  </g>
  
  <g transform="translate(1400, 600)" opacity="0.08">
    <path d="M0 0 Q10 -20 20 0 Q30 20 40 0" stroke="#F4A300" stroke-width="2" fill="none"/>
    <path d="M60 0 Q70 -20 80 0 Q90 20 100 0" stroke="#F4A300" stroke-width="2" fill="none"/>
  </g>
</svg>